HIERARCHY
ROOT SpineBase
{
  OFFSET 0.000000 0.000000 0.000000
  CHANNELS 6 Xposition Yposition Zposition Zrotation Xrotation Yrotation
  JOINT SpineMid
  {
    OFFSET 0.000000 29.816834 0.000000
    CHANNELS 3 Zrotation Xrotation Yrotation
    JOINT SpineShoulder
    {
      OFFSET -0.628686 22.210788 -0.818286
      CHANNELS 3 Zrotation Xrotation Yrotation
      JOINT Neck
      {
        OFFSET -0.330330 7.447243 -0.568977
        CHANNELS 3 Zrotation Xrotation Yrotation
        JOINT Head
        {
          OFFSET 3.154111 11.671766 2.304301
          CHANNELS 3 Zrotation Xrotation Yrotation
          End Site
          {
            OFFSET 0 0 0
          }
        }
      }
      JOINT ShoulderLeft
      {
        OFFSET -3.118219 -4.663554 -12.124323
        CHANNELS 3 Zrotation Xrotation Yrotation
        JOINT ElbowLeft
        {
          OFFSET 0.443637 -23.833461 -5.918440
          CHANNELS 3 Zrotation Xrotation Yrotation
          JOINT WristLeft
          {
            OFFSET 2.706138 -20.082687 -3.833146
            CHANNELS 3 Zrotation Xrotation Yrotation
            JOINT HandLeft
            {
              OFFSET 1.145962 -7.181338 -2.323649
              CHANNELS 3 Zrotation Xrotation Yrotation
              JOINT HandTipLeft
              {
                OFFSET 2.667970 -5.168574 -2.324810
                CHANNELS 3 Zrotation Xrotation Yrotation
                End Site
                {
                  OFFSET 0 0 0
                }
              }
              JOINT ThumbLeft
              {
                OFFSET -1.423685 -3.635804 -3.639220
                CHANNELS 3 Zrotation Xrotation Yrotation
                End Site
                {
                  OFFSET 0 0 0
                }
              }
            }
          }
        }
      }
      JOINT ShoulderRight
      {
        OFFSET 10.400966 0.309700 13.012289
        CHANNELS 3 Zrotation Xrotation Yrotation
        JOINT ElbowRight
        {
          OFFSET -9.758052 -18.887131 -19.400014
          CHANNELS 3 Zrotation Xrotation Yrotation
          JOINT WristRight
          {
            OFFSET 9.290955 -20.966398 14.045898
            CHANNELS 3 Zrotation Xrotation Yrotation
            JOINT HandRight
            {
              OFFSET 2.465669 -3.645560 -5.073789
              CHANNELS 3 Zrotation Xrotation Yrotation
              JOINT HandTipRight
              {
                OFFSET -0.112835 -0.585802 -0.717243
                CHANNELS 3 Zrotation Xrotation Yrotation
                End Site
                {
                  OFFSET 0 0 0
                }
              }
              JOINT ThumbRight
              {
                OFFSET -0.447242 0.288973 -1.259593
                CHANNELS 3 Zrotation Xrotation Yrotation
                End Site
                {
                  OFFSET 0 0 0
                }
              }
            }
          }
        }
      }
    }
  }
  JOINT HipLeft
  {
    OFFSET -3.314158 -0.036522 -6.669479
    CHANNELS 3 Zrotation Xrotation Yrotation
    JOINT KneeLeft
    {
      OFFSET -1.766354 -35.643677 -0.709712
      CHANNELS 3 Zrotation Xrotation Yrotation
      JOINT AnkleLeft
      {
        OFFSET -2.772665 -31.893521 4.236498
        CHANNELS 3 Zrotation Xrotation Yrotation
        JOINT FootLeft
        {
          OFFSET 8.054688 -3.044800 -7.069821
          CHANNELS 3 Zrotation Xrotation Yrotation
          End Site
          {
            OFFSET 0 0 0
          }
        }
      }
    }
  }
  JOINT HipRight
  {
    OFFSET 3.152440 1.950903 -0.001134
    CHANNELS 3 Zrotation Xrotation Yrotation
    JOINT KneeRight
    {
      OFFSET -0.534490 -30.682154 -17.015811
      CHANNELS 3 Zrotation Xrotation Yrotation
      JOINT AnkleRight
      {
        OFFSET -17.858943 -25.279243 24.437550
        CHANNELS 3 Zrotation Xrotation Yrotation
        JOINT FootRight
        {
          OFFSET 4.555368 -9.197075 -0.481424
          CHANNELS 3 Zrotation Xrotation Yrotation
          End Site
          {
            OFFSET 0 0 0
          }
        }
      }
    }
  }
}
MOTION
Frames: 10
Frame Time: 0.033333
12.653258 93.344967 314.823074 -2.155480 -1.529221 -39.373606 -1.736902 -1.057891 39.171957 -1.079238 -0.295576 -0.282680 7.344624 -0.803155 0.620446 0.000000 0.000000 0.000000 55.662088 4.778047 -15.585575 4.801317 2.935787 2.379856 -7.442611 -11.573518 -1.975724 -16.609561 3.104706 2.707726 0.000000 0.000000 0.000000 0.000000 0.000000 0.000000 31.209117 6.327365 -32.629816 -31.104455 33.217994 72.921447 -53.197297 -39.637037 -82.663716 20.937012 1.203165 -20.772008 0.000000 0.000000 0.000000 0.000000 0.000000 0.000000 0.987443 3.911076 39.248182 -4.847155 2.525119 -0.685086 -45.843872 -32.157155 -35.312491 0.000000 0.000000 0.000000 17.855838 -8.088131 36.552581 -8.650076 29.935705 -3.337725 0.395989 0.608954 14.415093 0.000000 0.000000 0.000000
12.693256 92.843570 314.874991 -2.447090 -1.626606 -15.586243 -1.945390 -0.210064 15.383696 -1.086244 -0.265068 -0.289555 7.463068 -1.168642 0.769045 0.000000 0.000000 0.000000 57.999930 2.103765 -15.217149 7.069013 -0.424818 3.180453 2.632188 -8.395362 -5.013727 -26.646818 -2.977804 4.347325 0.000000 0.000000 0.000000 0.000000 0.000000 0.000000 33.588917 4.275848 -34.566793 -25.875160 32.517029 73.963055 -51.545432 -35.201499 -83.548149 23.566611 0.778159 -25.179787 0.000000 0.000000 0.000000 0.000000 0.000000 0.000000 1.762972 4.509119 15.403136 -4.198482 1.402783 -0.731997 -45.421464 -32.489416 -33.916131 0.000000 0.000000 0.000000 14.120168 -18.181302 13.942173 -8.365235 33.830171 -3.383931 1.741367 2.892368 15.407240 0.000000 0.000000 0.000000
12.717174 92.432025 314.923985 -2.696535 -1.725205 16.256716 -1.619710 0.812025 -16.456187 -1.032474 -0.259054 -0.290267 7.345196 -1.612427 0.956786 0.000000 0.000000 0.000000 58.126111 -0.762377 -14.052877 11.115200 -2.673245 3.093586 2.342175 -7.906199 -5.807769 -26.694958 -0.609903 3.760110 0.000000 0.000000 0.000000 0.000000 0.000000 0.000000 35.223740 2.720755 -36.011280 -21.686678 31.283690 73.872622 -49.985773 -34.857105 -88.575184 24.094148 -4.236001 -19.412078 0.000000 0.000000 0.000000 0.000000 0.000000 0.000000 3.947710 4.187020 -16.527098 -3.692593 0.438028 -0.766614 -44.704037 -32.737306 -32.266642 0.000000 0.000000 0.000000 0.540693 -26.101155 -19.812500 -7.901842 37.560186 -3.569807 3.594880 4.675203 16.056570 0.000000 0.000000 0.000000
12.751445 92.083937 314.896126 -2.874133 -1.739661 45.536345 -0.912375 1.407638 -45.741888 -0.972071 -0.245526 -0.286678 7.177728 -2.370706 1.202756 0.000000 0.000000 0.000000 58.319724 -3.747288 -12.803138 15.419677 -4.882855 2.883288 -3.163338 -10.189228 -3.512088 -22.313230 2.579111 0.889306 0.000000 0.000000 0.000000 0.000000 0.000000 0.000000 35.434133 2.719428 -36.329154 -15.178501 29.299832 72.150327 -49.007390 -37.133388 -97.936100 24.931779 -7.023892 -9.690351 0.000000 0.000000 0.000000 0.000000 0.000000 0.000000 5.897631 2.631183 -45.798990 -3.251704 -0.298353 -0.798319 -44.070382 -32.915572 -31.123379 0.000000 0.000000 0.000000 -15.704509 -24.486011 -52.410241 -7.384630 40.586671 -3.833784 5.198424 6.182265 16.548755 0.000000 0.000000 0.000000
12.788657 91.784585 314.800853 -2.970783 -1.741502 64.854098 -0.403077 1.555022 -65.070920 -0.907309 -0.275806 -0.286825 7.163884 -2.808863 1.343200 0.000000 0.000000 0.000000 57.891029 -7.265241 -11.167451 19.664179 -6.044966 1.615971 -17.624733 -8.771303 0.789386 -8.487533 1.468927 -6.782401 0.000000 0.000000 0.000000 0.000000 0.000000 0.000000 35.548333 2.359311 -36.373945 -11.887390 28.309102 71.066431 -51.872704 -37.688610 -103.916078 26.052895 -6.383959 -5.945956 0.000000 0.000000 0.000000 0.000000 0.000000 0.000000 6.598236 1.141955 -65.034180 -2.819554 -0.621848 -0.821277 -43.868057 -33.018346 -30.880314 0.000000 0.000000 0.000000 -24.513318 -18.676157 -72.435237 -7.529620 42.267163 -3.685284 4.272932 9.384816 18.064811 0.000000 0.000000 0.000000
12.805880 91.604854 314.644519 -2.981468 -1.727136 73.569212 -0.218894 1.549798 -73.791492 -0.812309 -0.336803 -0.285706 6.972784 -3.053713 1.451026 0.000000 0.000000 0.000000 57.227434 -9.223074 -10.225649 24.410035 -7.594710 0.735297 -32.604435 -8.054470 6.281924 4.715328 -1.983997 -14.790168 0.000000 0.000000 0.000000 0.000000 0.000000 0.000000 35.086089 2.221975 -35.848752 -8.905279 27.448115 69.408445 -51.535683 -38.475308 -107.413038 27.836812 -7.442614 -0.982532 0.000000 0.000000 0.000000 0.000000 0.000000 0.000000 6.374199 0.382479 -73.687052 -2.615223 -0.391319 -0.836928 -44.340562 -33.212616 -31.151953 0.000000 0.000000 0.000000 -27.037024 -15.048422 -80.785603 -7.766883 42.405912 -3.514344 4.797186 9.477089 18.027932 0.000000 0.000000 0.000000
12.879386 91.463309 314.474284 -2.854961 -1.713698 72.787151 -0.314604 1.512306 -73.005464 -0.694373 -0.398893 -0.278188 6.461812 -2.969139 1.491899 0.000000 0.000000 0.000000 58.823332 -11.354065 -9.733434 24.511043 -8.097826 0.558995 -44.661968 -3.641467 10.086844 13.487570 -11.147587 -18.530913 0.000000 0.000000 0.000000 0.000000 0.000000 0.000000 35.908195 0.941426 -36.773194 -10.190451 27.179533 69.937680 -47.092440 -34.248728 -97.416754 35.856038 -18.294657 4.555506 0.000000 0.000000 0.000000 0.000000 0.000000 0.000000 5.367501 0.578250 -72.881746 -2.418062 0.375942 -0.829666 -45.074782 -33.395084 -31.244810 0.000000 0.000000 0.000000 -25.056502 -15.408666 -80.090844 -8.464063 40.627734 -3.085393 2.643062 10.077934 18.622837 0.000000 0.000000 0.000000
12.935501 91.185306 314.374908 -2.663373 -1.752759 59.120070 -0.681214 1.311930 -59.328173 -0.579900 -0.430106 -0.263339 5.606936 -2.746537 1.531086 0.000000 0.000000 0.000000 61.547477 -10.539534 -10.904533 22.022508 -9.225554 2.995024 -38.665865 0.351276 6.816464 8.104285 -20.182161 -15.340127 0.000000 0.000000 0.000000 0.000000 0.000000 0.000000 35.626729 0.257525 -36.607222 -11.142785 27.787954 69.788741 -46.593687 -33.047611 -94.345901 39.798756 -23.718335 19.973708 0.000000 0.000000 0.000000 0.000000 0.000000 0.000000 4.926500 1.612893 -59.263463 -2.774269 0.580019 -0.835077 -45.809017 -33.531593 -31.738950 0.000000 0.000000 0.000000 -20.759831 -20.397029 -66.627678 -8.252102 40.384458 -3.240152 1.382408 12.752989 20.082439 0.000000 0.000000 0.000000
13.006682 90.881220 314.308322 -2.386466 -1.792977 35.607835 -1.134860 0.866927 -35.803513 -0.491950 -0.440415 -0.245239 4.551088 -2.577237 1.606855 0.000000 0.000000 0.000000 61.263047 -8.380186 -12.096217 23.012323 -10.307153 4.496713 -42.831110 -1.144079 8.715496 15.550398 -27.215472 -19.826873 0.000000 0.000000 0.000000 0.000000 0.000000 0.000000 35.109693 -0.886591 -35.942251 -10.975803 30.141327 70.089185 -46.093658 -29.625982 -89.850999 34.652625 -25.583742 33.915183 0.000000 0.000000 0.000000 0.000000 0.000000 0.000000 3.785853 3.044415 -35.790078 -3.243762 0.875252 -0.831186 -46.478348 -33.608811 -32.166726 0.000000 0.000000 0.000000 -10.907519 -26.369621 -41.666714 -7.825406 40.190248 -3.540855 0.046736 14.905759 21.379237 0.000000 0.000000 0.000000
13.045203 90.637375 314.259226 -2.161035 -1.830481 15.992032 -1.350243 0.399094 -16.182242 -0.438980 -0.429410 -0.231091 3.895846 -2.412132 1.628580 0.000000 0.000000 0.000000 59.877063 -5.116556 -13.444515 22.840547 -11.958381 6.603873 -36.864760 -2.147647 6.590377 11.347659 -26.215620 -18.111411 0.000000 0.000000 0.000000 0.000000 0.000000 0.000000 33.310430 0.270502 -34.422283 -8.147987 30.083157 68.083801 -47.226470 -28.567515 -88.010245 21.386984 -14.293636 15.697613 0.000000 0.000000 0.000000 0.000000 0.000000 0.000000 2.849422 3.706921 -16.179981 -3.843303 1.088315 -0.813174 -46.762968 -33.456517 -32.713480 0.000000 0.000000 0.000000 -1.330765 -27.892211 -19.411336 -7.286262 40.090708 -4.315337 3.183017 13.704993 20.632378 0.000000 0.000000 0.000000
